<?xml version="1.0" encoding="UTF-8" standalone="no"?>
<!-- Created with Inkscape (http://www.inkscape.org/) -->

<svg
   xmlns:dc="http://purl.org/dc/elements/1.1/"
   xmlns:cc="http://creativecommons.org/ns#"
   xmlns:rdf="http://www.w3.org/1999/02/22-rdf-syntax-ns#"
   xmlns:svg="http://www.w3.org/2000/svg"
   xmlns="http://www.w3.org/2000/svg"
   xmlns:sodipodi="http://sodipodi.sourceforge.net/DTD/sodipodi-0.dtd"
   xmlns:inkscape="http://www.inkscape.org/namespaces/inkscape"
   version="1.1"
   width="100"
   height="100"
   id="svg2"
   inkscape:version="0.48.5 r10040"
   sodipodi:docname="teleport-logo.svg">
  <sodipodi:namedview
     pagecolor="#ffffff"
     bordercolor="#666666"
     borderopacity="1"
     objecttolerance="10"
     gridtolerance="10"
     guidetolerance="10"
     inkscape:pageopacity="0"
     inkscape:pageshadow="2"
     inkscape:window-width="1069"
     inkscape:window-height="745"
     id="namedview2995"
     showgrid="false"
     inkscape:zoom="3.4223968"
     inkscape:cx="62.52814"
     inkscape:cy="45.652914"
     inkscape:window-x="2040"
     inkscape:window-y="244"
     inkscape:window-maximized="0"
     inkscape:current-layer="text4037" />
  <defs
     id="defs4" />
  <metadata
     id="metadata7">
    <rdf:RDF>
      <cc:Work
         rdf:about="">
        <dc:format>image/svg+xml</dc:format>
        <dc:type
           rdf:resource="http://purl.org/dc/dcmitype/StillImage" />
        <dc:title></dc:title>
      </cc:Work>
    </rdf:RDF>
  </metadata>
  <g
     id="layer1"
     transform="matrix(0.6571728,0,0,0.6571728,-4.8582473,-12.612863)">
    <path
       d="M 60.503264,116.58179 A 60.434825,41.839495 41.895998 1 1 116.38246,54.294652 60.434825,41.839495 41.895998 0 1 60.503264,116.58179 z"
       id="path3849"
       style="fill:none;stroke:#ffffff;stroke-width:0.92976642;stroke-opacity:1"
       inkscape:connector-curvature="0" />
    <path
       d="M 56.210727,123.58997 A 60.434824,41.839493 41.895998 0 1 112.08992,61.302829 60.434824,41.839493 41.895998 0 1 56.210727,123.58997 z"
       id="path3851"
       style="fill:none;stroke:#ffffff;stroke-width:0.92976642;stroke-opacity:1"
       inkscape:connector-curvature="0" />
    <path
       d="M 51.917378,130.5967 A 60.434831,41.839496 41.895998 1 1 107.79659,68.30957 60.434831,41.839496 41.895998 0 1 51.917378,130.5967 z"
       id="path3853"
       style="fill:none;stroke:#ffffff;stroke-width:0.92976642;stroke-opacity:1"
       inkscape:connector-curvature="0" />
    <path
       d="M 47.623631,137.6045 A 60.434819,41.83949 41.895998 0 1 103.50282,75.317368 60.434819,41.83949 41.895998 1 1 47.623631,137.6045 z"
       id="path3855"
       style="fill:none;stroke:#ffffff;stroke-width:0.92976642;stroke-opacity:1"
       inkscape:connector-curvature="0" />
    <g
       transform="matrix(4.0451917,0.69133936,-0.69133936,4.0451917,-131.18149,-151.26263)"
       style="font-size:40px;font-style:normal;font-weight:normal;line-height:125%;letter-spacing:0px;word-spacing:0px;fill:#ffffff;fill-opacity:1;stroke:none;font-family:Sans"
       id="text4037">
      <path
         d="m 70.821032,44.542611 -7.774399,0 0,19.187567 -2.89348,0 0,-19.187567 -7.774399,0 0,-2.571981 18.442278,0 0,2.571981"
         style="font-variant:normal;font-stretch:normal;font-family:Verdana;-inkscape-font-specification:Verdana"
         id="path4042"
         inkscape:connector-curvature="0" />
      <text
         xml:space="preserve"
         style="font-size:40px;font-style:normal;font-weight:normal;line-height:125%;letter-spacing:0px;word-spacing:0px;fill:#ffffff;fill-opacity:1;stroke:none;font-family:Sans"
         x="56.393227"
         y="33.964409"
         id="text4044"
         sodipodi:linespacing="125%"
         transform="matrix(0.36549218,-0.06246407,0.06246407,0.36549218,40.281467,35.253479)"><tspan
           sodipodi:role="line"
           id="tspan4046"
           x="56.393227"
           y="33.964409" /></text>
    </g>
  </g>
</svg>
